# xmcd CD database file
#
# Track frame offsets:
#	150
#	23608
#	46279
#	64965
#	92004
#	112132
#	134344
#	158220
#	185488
#	222523
#	240618
#	286033
#
# Disc length: 3852 seconds
#
# Revision: 4
# Processed by: cddbd v1.5PL3 Copyright (c) Steve Scherf et al.
# Submitted via: CDex 1.51
#
DISCID=ab0f0a0c
DTITLE=Yallopin' Hounds - Ghetto Swing
DYEAR=1999
DGENRE=Jazz
TTITLE0=Hot Dog
TTITLE1=Nobody Knows
TTITLE2=Oops, My Bad
TTITLE3=Daddy, Make It Feel Good
TTITLE4=Song for the Romantically Unrequited
TTITLE5=We
TTITLE6=You Ain't Shit
TTITLE7=Where Have You Been?
TTITLE8=Ghetto Swing
TTITLE9=Flat Foot Floogie
TTITLE10=King of The Mall
TTITLE11=Musicology Criminology
EXTD=YEAR: 1999
EXTT0=
EXTT1=
EXTT2=
EXTT3=
EXTT4=
EXTT5=
EXTT6=
EXTT7=
EXTT8=
EXTT9=
EXTT10=
EXTT11=
PLAYORDER=
